<svg width="64" height="64" viewBox="0 0 64 64" fill="none" xmlns="http://www.w3.org/2000/svg">
<g id="case-icon">
<path id="Oval" fill-rule="evenodd" clip-rule="evenodd" d="M32 64C49.6731 64 64 49.6731 64 32C64 14.3269 49.6731 0 32 0C14.3269 0 0 14.3269 0 32C0 49.6731 14.3269 64 32 64Z" fill="#4B4B4B"/>
<g id="Case">
<path id="Stroke 1" fill-rule="evenodd" clip-rule="evenodd" d="M44.5478 46.3824H19.6444C17.6318 46.3824 16 44.7438 16 42.7228V24.1204C16 22.0994 17.6318 20.4609 19.6444 20.4609H44.5478C46.5605 20.4609 48.1923 22.0994 48.1923 24.1204V42.7228C48.1923 44.7438 46.5605 46.3824 44.5478 46.3824V46.3824Z" stroke="white" stroke-width="2"/>
<path id="Stroke 3" d="M16.6072 30.7531H47.585" stroke="white" stroke-width="2"/>
<path id="Stroke 5" d="M28.4516 30.7531V46.3062H24.8072V30.7531" stroke="white" stroke-width="2"/>
<path id="Stroke 7" d="M35.7405 46.3062V30.7531" stroke="white" stroke-width="2"/>
<path id="Stroke 9" d="M39.3849 30.7531V46.3062" stroke="white" stroke-width="2"/>
<path id="Stroke 11" d="M27.5405 19.7744C27.5405 19.7744 27.3127 15.2 32.096 15.2C36.576 15.2 36.6516 19.7744 36.6516 19.7744" stroke="white" stroke-width="2"/>
</g>
</g>
</svg>
