<svg width="64" height="64" viewBox="0 0 64 64" fill="none" xmlns="http://www.w3.org/2000/svg">
<g id="plane-icon">
<path id="oval" fill-rule="evenodd" clip-rule="evenodd" d="M32 64C49.6731 64 64 49.6731 64 32C64 14.3269 49.6731 0 32 0C14.3269 0 0 14.3269 0 32C0 49.6731 14.3269 64 32 64Z" fill="#4B4B4B"/>
<g id="Plane">
<path id="Plane_2" fill-rule="evenodd" clip-rule="evenodd" d="M45.1891 44.783C45.2919 45.1847 45.1741 45.6164 44.8807 45.9098L43.6299 47.1626C43.5441 47.2484 43.4189 47.2886 43.3024 47.2736C43.1819 47.2572 43.0771 47.1864 43.0165 47.0809L35.1179 33.2419L34.3458 33.1112L25.4567 40.8709L26.5705 45.6348C26.6672 46.0501 26.5453 46.4784 26.2444 46.78L25.4233 47.6011C25.3341 47.6909 25.2088 47.7284 25.0822 47.7025C24.9583 47.6773 24.8561 47.5922 24.8092 47.4738L22.9715 42.8766L20.8364 40.7558L16.2073 38.9018C16.1038 38.8603 16.0296 38.7704 16.0071 38.6601C15.984 38.5512 16.018 38.4389 16.0984 38.3585L16.9569 37.4993C17.1938 37.261 17.5084 37.1323 17.8338 37.1323C17.9292 37.1323 18.0258 37.1439 18.1212 37.1664L22.8674 38.2789L30.6189 29.3781L30.4881 28.6067L16.5872 20.6544C16.4994 20.604 16.4415 20.5182 16.4279 20.4174C16.415 20.3194 16.449 20.2193 16.5191 20.1485L17.81 18.8562C18.1184 18.5478 18.5726 18.4239 18.9927 18.5321L36.8759 23.1156L41.8515 18.1345C42.3486 17.6361 43.0104 17.3618 43.7137 17.3618C44.4075 17.3618 45.0863 17.6436 45.5772 18.1352C46.0674 18.6261 46.3492 19.3063 46.3492 20.0007C46.3492 20.6952 46.0674 21.3747 45.5765 21.8663L40.6022 26.8467L45.1891 44.783Z" stroke="white" stroke-width="2"/>
</g>
</g>
</svg>
