<svg width="64" height="64" viewBox="0 0 64 64" fill="none" xmlns="http://www.w3.org/2000/svg">
<g id="wallet-icon">
<path id="Oval 1 Copy 3" fill-rule="evenodd" clip-rule="evenodd" d="M32 64C49.6731 64 64 49.6731 64 32C64 14.3269 49.6731 0 32 0C14.3269 0 0 14.3269 0 32C0 49.6731 14.3269 64 32 64Z" fill="#4B4B4B"/>
<g id="Wallet">
<path id="Stroke 1" fill-rule="evenodd" clip-rule="evenodd" d="M45.3649 46.7454H19.2699C17.8272 46.7454 16.6582 45.5757 16.6582 44.133V24.8472C16.6582 23.4045 17.8272 22.2348 19.2699 22.2348H45.3649C46.8077 22.2348 47.9774 23.4045 47.9774 24.8472V44.133C47.9774 45.5757 46.8077 46.7454 45.3649 46.7454V46.7454Z" stroke="white" stroke-width="2"/>
<path id="Stroke 3" fill-rule="evenodd" clip-rule="evenodd" d="M41.1687 38.5752H47.9772V30.405H41.1687C39.6647 30.405 38.4453 31.6244 38.4453 33.1284V35.8518C38.4453 37.3558 39.6647 38.5752 41.1687 38.5752V38.5752Z" stroke="white" stroke-width="2"/>
<path id="Stroke 5" fill-rule="evenodd" clip-rule="evenodd" d="M42.5303 35.8518C41.778 35.8518 41.1686 35.2425 41.1686 34.4901C41.1686 33.7378 41.778 33.1284 42.5303 33.1284C43.2827 33.1284 43.892 33.7378 43.892 34.4901C43.892 35.2425 43.2827 35.8518 42.5303 35.8518Z" fill="white"/>
<path id="Stroke 7" d="M30.275 22.2348L39.8069 15.4263L43.892 22.2348" stroke="white" stroke-width="2"/>
<path id="Stroke 9" d="M23.4665 22.2348L30.275 15.4263L34.3601 19.5114" stroke="white" stroke-width="2"/>
</g>
</g>
</svg>
